HIERARCHY
ROOT Hips
{
 OFFSET 0.000000 0.000000 0.000000
 CHANNELS 6 Xposition Yposition Zposition Yrotation Xrotation Zrotation
 JOINT Chest
 {
  OFFSET 0.000000 10.354800 0.006500
  CHANNELS 3 Yrotation Xrotation Zrotation
  JOINT Chest2
  {
   OFFSET 0.000000 10.435800 -0.013200
   CHANNELS 3 Yrotation Xrotation Zrotation
   JOINT Chest3
   {
    OFFSET 0.000000 10.393700 0.000000
    CHANNELS 3 Yrotation Xrotation Zrotation
    JOINT Chest4
    {
     OFFSET 0.000000 10.383100 0.000000
     CHANNELS 3 Yrotation Xrotation Zrotation
     JOINT Neck
     {
      OFFSET 0.000000 15.694000 0.000000
      CHANNELS 3 Yrotation Xrotation Zrotation
      JOINT Head
      {
       OFFSET 0.000000 9.711000 -0.028000
       CHANNELS 3 Yrotation Xrotation Zrotation
       End Site
       {
        OFFSET 0.000000 18.578700 -0.014800
       }
      }
     }
     JOINT RightCollar
     {
      OFFSET -3.157200 10.367500 0.000000
      CHANNELS 3 Yrotation Xrotation Zrotation
      JOINT RightShoulder
      {
       OFFSET -14.482500 0.000000 0.000000
       CHANNELS 3 Yrotation Xrotation Zrotation
       JOINT RightElbow
       {
        OFFSET 0.000000 -31.707800 0.000000
        CHANNELS 3 Yrotation Xrotation Zrotation
        JOINT RightWrist
        {
         OFFSET 0.000000 -25.659300 0.000000
         CHANNELS 3 Yrotation Xrotation Zrotation
         End Site
         {
          OFFSET 0.000000 -18.994300 0.000000
         }
        }
       }
      }
     }
     JOINT LeftCollar
     {
      OFFSET 3.157200 10.367500 0.000000
      CHANNELS 3 Yrotation Xrotation Zrotation
      JOINT LeftShoulder
      {
       OFFSET 14.482500 0.000000 0.000000
       CHANNELS 3 Yrotation Xrotation Zrotation
       JOINT LeftElbow
       {
        OFFSET 0.000000 -31.707800 0.000000
        CHANNELS 3 Yrotation Xrotation Zrotation
        JOINT LeftWrist
        {
         OFFSET 0.000000 -25.659300 0.000000
         CHANNELS 3 Yrotation Xrotation Zrotation
         End Site
         {
          OFFSET 0.000000 -18.994300 0.000000
         }
        }
       }
      }
     }
    }
   }
  }
 }
 JOINT RightHip
 {
  OFFSET -8.365600 -0.032100 -0.003200
  CHANNELS 3 Yrotation Xrotation Zrotation
  JOINT RightKnee
  {
   OFFSET 0.000000 -43.980000 0.003100
   CHANNELS 3 Yrotation Xrotation Zrotation
   JOINT RightAnkle
   {
    OFFSET 0.000000 -42.882800 0.005200
    CHANNELS 3 Yrotation Xrotation Zrotation
    JOINT RightToe
    {
     OFFSET 0.000000 -4.915500 10.826300
     CHANNELS 3 Yrotation Xrotation Zrotation
     End Site
     {
      OFFSET 0.000000 -1.517500 6.175900
     }
    }
   }
  }
 }
 JOINT LeftHip
 {
  OFFSET 8.365600 -0.032100 -0.003200
  CHANNELS 3 Yrotation Xrotation Zrotation
  JOINT LeftKnee
  {
   OFFSET 0.000000 -43.980000 0.003100
   CHANNELS 3 Yrotation Xrotation Zrotation
   JOINT LeftAnkle
   {
    OFFSET 0.000000 -42.882800 0.005200
    CHANNELS 3 Yrotation Xrotation Zrotation
    JOINT LeftToe
    {
     OFFSET 0.000000 -4.915500 10.826300
     CHANNELS 3 Yrotation Xrotation Zrotation
     End Site
     {
      OFFSET 0.000000 -1.517500 6.175900
     }
    }
   }
  }
 }
}
MOTION
Frames: 9
Frame Time: 0.008333
6.224757 126.413540 32.753702 -179.819069 -19.364395 -7.132757 -1.421785 8.740850 3.148423 -0.093551 0.491490 0.183646 -0.161962 0.848201 0.316680 -1.348695 8.146321 2.946411 -4.284503 19.993737 -0.791123 -4.406445 -4.449493 0.133561 3.385027 3.421234 -6.241546 0.386616 -20.133769 -16.208906 23.242778 -71.955394 -22.697611 -14.736056 -14.526615 -16.225287 -0.540328 6.249210 -1.258159 6.084447 0.930808 -1.906753 98.215014 -57.729504 -152.091499 -1.569632 4.249367 -36.414055 9.450180 -44.957135 -7.033006 -176.580358 58.582705 -172.403397 -2.635297 -36.069072 15.099579 -0.001461 0.001099 -0.000663 -6.582574 -45.364936 9.217828 163.264818 62.755662 165.091934 -1.931353 -33.974732 -6.358965 -0.001213 0.007461 -0.000551
6.218319 126.417216 32.757324 -179.775778 -19.424140 -7.157075 -1.446802 8.806229 3.155520 -0.095385 0.497724 0.185875 -0.164341 0.862997 0.321633 -1.359686 8.155858 2.951170 -4.349230 19.978593 -0.750223 -4.476762 -4.501530 0.183276 3.355515 3.401928 -6.240071 0.285952 -20.000069 -16.182660 20.750897 -72.451393 -20.169569 -14.775248 -14.576403 -16.684857 -0.598262 6.232542 -1.239239 6.084442 0.903160 -1.890685 98.073723 -57.752667 -151.942116 -1.585612 4.198772 -36.498290 9.433345 -44.882247 -6.993698 -176.533214 58.594897 -172.348411 -2.667085 -36.067375 15.049380 0.004427 -0.000304 0.002010 -6.599831 -45.309533 9.225218 163.244819 62.748787 165.044071 -1.965421 -33.972781 -6.311300 -0.014956 0.012368 -0.006792
6.213620 126.418863 32.767695 -179.753291 -19.447484 -7.181127 -1.458858 8.832979 3.170761 -0.094462 0.502951 0.186834 -0.167694 0.866330 0.323647 -1.371051 8.179899 2.957592 -4.415593 19.965376 -0.713283 -4.551545 -4.553975 0.231994 3.264060 3.398659 -6.230113 0.259615 -19.895118 -16.177548 18.223443 -72.882161 -17.582131 -14.812911 -14.599927 -17.098094 -0.620677 6.208890 -1.234452 6.043473 0.887247 -1.867803 97.966758 -57.753097 -151.805153 -1.601905 4.176752 -36.593013 9.423699 -44.853752 -6.941196 -176.442581 58.607296 -172.271507 -2.694954 -36.064426 15.015840 0.003402 0.000769 0.001544 -6.522807 -45.323171 9.197485 163.214592 62.734921 165.079288 -1.988855 -33.952406 -6.312411 -0.008358 0.007273 -0.003795
6.208906 126.420680 32.777482 -179.733892 -19.472984 -7.200569 -1.467310 8.861674 3.182447 -0.097100 0.503980 0.188122 -0.167222 0.873777 0.325359 -1.382473 8.236762 2.972643 -4.487605 19.922830 -0.689520 -4.626944 -4.606432 0.279429 3.160766 3.366191 -6.240381 0.245938 -19.804966 -16.168259 15.655465 -73.242364 -14.923606 -14.855390 -14.607095 -17.470082 -0.642645 6.154571 -1.238159 6.000164 0.874503 -1.857236 97.865490 -57.752491 -151.671344 -1.626207 4.155569 -36.683656 9.412548 -44.824753 -6.887238 -176.354152 58.621324 -172.202019 -2.729265 -36.060622 15.005047 0.002906 0.001807 0.001319 -6.481346 -45.324577 9.183518 163.194711 62.726928 165.097292 -1.992976 -33.928550 -6.339237 -0.004126 0.006546 -0.001873
6.207662 126.425153 32.780670 -179.705835 -19.533609 -7.238414 -1.482009 8.935424 3.201662 -0.098528 0.510644 0.190237 -0.169857 0.884775 0.328955 -1.405218 8.344093 2.987429 -4.534805 19.818471 -0.665185 -4.699814 -4.656262 0.325062 3.095560 3.260509 -6.261747 0.215451 -19.718199 -16.152049 13.018913 -73.530824 -12.160872 -14.902699 -14.608868 -17.818612 -0.669671 6.049101 -1.229091 5.988957 0.851589 -1.873533 97.776265 -57.754209 -151.551037 -1.656641 4.133917 -36.763913 9.370469 -44.762056 -6.796733 -176.242563 58.642821 -172.117190 -2.755865 -36.047413 15.001103 -0.000512 -0.002645 -0.000232 -6.499205 -45.271565 9.205884 163.189482 62.728184 165.102518 -1.993339 -33.914867 -6.344376 -0.004466 0.008517 -0.002028
6.204879 126.427352 32.788893 -179.697150 -19.561407 -7.256581 -1.486270 8.975794 3.206343 -0.099923 0.516963 0.192012 -0.174240 0.927055 0.328653 -1.408855 8.361992 3.000324 -4.591679 19.775529 -0.638178 -4.770079 -4.701482 0.368238 3.013209 3.207320 -6.272529 0.184164 -19.636073 -16.133579 10.259344 -73.752907 -9.234742 -14.951320 -14.619503 -18.158362 -0.755950 6.024631 -1.181771 6.027078 0.812769 -1.934366 97.776899 -57.752931 -151.509275 -1.664988 4.130994 -36.821087 9.358095 -44.734287 -6.743612 -176.178674 58.656210 -172.057247 -2.786971 -36.045987 14.987334 0.004556 -0.000225 0.002069 -6.495891 -45.254158 9.215298 163.188231 62.728015 165.114462 -1.994823 -33.906930 -6.346952 -0.002127 0.012306 -0.000966
6.203900 126.430247 32.794836 -179.680894 -19.596642 -7.282697 -1.490842 9.046853 3.209571 -0.099805 0.504001 0.203352 -0.177916 0.940820 0.329403 -1.407840 8.347381 3.007518 -4.656245 19.796176 -0.616512 -4.772551 -4.747016 0.370744 2.916329 3.206396 -6.279868 0.153680 -19.551488 -16.112509 7.310751 -73.915392 -6.078391 -15.001635 -14.650439 -18.498280 -0.797159 6.034160 -1.158002 6.016233 0.804480 -1.967727 97.795105 -57.755614 -151.493583 -1.686314 4.116397 -36.836690 9.330542 -44.704036 -6.673206 -176.082745 58.685382 -171.984574 -2.811408 -36.027695 14.977874 0.000845 -0.002841 0.000384 -6.494416 -45.232594 9.224575 163.183318 62.727100 165.131657 -1.994210 -33.896332 -6.345591 -0.001917 0.013333 -0.000870
6.204779 126.434099 32.797775 -179.666065 -19.645060 -7.314170 -1.493877 9.107904 3.229868 -0.103518 0.516400 0.201770 -0.175163 0.936437 0.332911 -1.412609 8.404316 3.013182 -4.705222 19.771987 -0.596944 -4.866766 -4.785463 0.434770 2.825642 3.145213 -6.296672 0.129436 -19.461169 -16.086639 4.123765 -74.014586 -2.646354 -15.057987 -14.707512 -18.848733 -0.819100 5.982726 -1.141346 6.022412 0.794881 -1.993923 97.724792 -57.759314 -151.416756 -1.715396 4.098366 -36.895520 9.291648 -44.659064 -6.594359 -176.026348 58.708140 -171.935286 -2.843479 -36.027062 14.936692 0.001285 -0.006972 0.000583 -6.509356 -45.195580 9.252224 163.199579 62.735193 165.160746 -1.985566 -33.876775 -6.344706 -0.002681 0.013513 -0.001217
6.205643 126.436256 32.804435 -179.670415 -19.669732 -7.334580 -1.484654 9.168300 3.234902 -0.097824 0.511884 0.206611 -0.176779 0.926133 0.339792 -1.410010 8.548250 3.003238 -4.716168 19.637711 -0.559479 -4.974449 -4.786710 0.505850 2.736175 2.991908 -6.304578 0.115765 -19.367973 -16.052388 0.664756 -74.036015 1.092621 -15.117296 -14.797341 -19.225373 -0.820967 5.826601 -1.117472 6.010611 0.802683 -2.005999 97.710099 -57.756997 -151.383297 -1.736419 4.090215 -36.949046 9.271541 -44.644586 -6.530704 -175.980599 58.731875 -171.902518 -2.865948 -36.008927 14.933422 0.001146 -0.005379 0.000520 -6.555386 -45.193313 9.315391 163.249799 62.732080 165.194212 -1.985895 -33.850102 -6.325902 -0.003068 0.006363 -0.001393
